<svg width="90" height="90" viewBox="0 0 90 90" fill="none" xmlns="http://www.w3.org/2000/svg">
<path d="M36 0C16.1172 0 0 5.375 0 12V46C0 56.1641 10.8359 84.1641 36 90C61.1641 84.1641 72 56.1641 72 46V12C72 5.375 55.8828 0 36 0ZM36 4C57 4 68 9.94531 68 12V46C68 54.2734 59.3359 77.0469 40 84.5938V72H32V84.5938C12.6641 77.0469 4 54.2734 4 46V12C4 9.94531 15 4 36 4ZM20 18C16.0078 18 11.7109 19.7578 8 26C11.9062 23.2812 15.2266 22 18 22C23.375 22 26.0547 28.2969 26.875 29.125C28.0469 30.2969 29.9453 30.2969 31.125 29.125C32.2969 27.9531 32.2969 26.0547 31.125 24.875C30.3906 24.1484 26.875 18 20 18ZM52 18C45.125 18 41.6094 24.1484 40.875 24.875C39.7031 26.0547 39.7031 27.9531 40.875 29.125C42.0547 30.2969 43.9531 30.2969 45.125 29.125C45.9453 28.2969 48.625 22 54 22C56.7734 22 60.0938 23.2812 64 26C60.2891 19.7578 55.9922 18 52 18ZM18 30C14.7188 30 11.8359 31.1875 10 33C11.8359 34.8125 14.7188 36 18 36C21.2812 36 24.1641 34.8125 26 33C24.1641 31.1875 21.2812 30 18 30ZM54 30C50.7188 30 47.8359 31.1875 46 33C47.8359 34.8125 50.7188 36 54 36C57.2812 36 60.1641 34.8125 62 33C60.1641 31.1875 57.2812 30 54 30ZM8 48L18 64H32L36 60L40 64H54L64 48L52 58H44L38 52H34L28 58H20L8 48Z" fill="#06D001"/>
</svg>
