<svg width="933" height="386" viewBox="0 0 933 386" fill="none" xmlns="http://www.w3.org/2000/svg">
<path d="M118.491 67.4174C53.0484 67.4174 0 85.1088 0 106.914V218.823C0 252.277 35.6656 344.437 118.491 363.645C201.317 344.437 236.982 252.277 236.982 218.823V106.914C236.982 85.1088 183.934 67.4174 118.491 67.4174ZM118.491 80.5831C187.611 80.5831 223.817 100.152 223.817 106.914V218.823C223.817 246.054 195.3 321.011 131.657 345.851V304.4H105.325V345.851C41.6828 321.011 13.1657 246.054 13.1657 218.823V106.914C13.1657 100.152 49.3713 80.5831 118.491 80.5831ZM65.8284 126.663C52.6884 126.663 38.5456 132.449 26.3314 152.994C39.1885 144.046 50.117 139.829 59.2456 139.829C76.937 139.829 85.7569 160.554 88.4569 163.28C92.3141 167.137 98.5626 167.137 102.445 163.28C106.303 159.423 106.303 153.174 102.445 149.291C100.028 146.9 88.4569 126.663 65.8284 126.663ZM171.154 126.663C148.525 126.663 136.954 146.9 134.537 149.291C130.68 153.174 130.68 159.423 134.537 163.28C138.42 167.137 144.668 167.137 148.525 163.28C151.225 160.554 160.045 139.829 177.737 139.829C186.865 139.829 197.794 144.046 210.651 152.994C198.437 132.449 184.294 126.663 171.154 126.663ZM59.2456 166.16C48.4456 166.16 38.9571 170.069 32.9142 176.034C38.9571 182 48.4456 185.909 59.2456 185.909C70.0456 185.909 79.5341 182 85.5769 176.034C79.5341 170.069 70.0456 166.16 59.2456 166.16ZM177.737 166.16C166.937 166.16 157.448 170.069 151.405 176.034C157.448 182 166.937 185.909 177.737 185.909C188.537 185.909 198.025 182 204.068 176.034C198.025 170.069 188.537 166.16 177.737 166.16ZM26.3314 225.406L59.2456 278.068H105.325L118.491 264.903L131.657 278.068H177.737L210.651 225.406L171.154 258.32H144.823L125.074 238.571H111.908L92.1598 258.32H65.8284L26.3314 225.406Z" fill="#06D001"/>
<path d="M367.31 117.694C365.705 115.101 363.421 113.126 360.457 111.768C357.494 110.286 353.913 109.545 349.715 109.545C341.813 109.545 335.702 112.138 331.38 117.324C327.059 122.386 324.898 129.362 324.898 138.252C324.898 148.5 327.306 156.155 332.121 161.217C336.936 166.28 344.344 168.811 354.346 168.811C363.853 168.811 371.508 164.983 377.311 157.328H344.53V128.251H411.389V169.367C405.709 179.121 397.869 187.517 387.868 194.555C377.867 201.469 365.211 204.926 349.901 204.926C336.319 204.926 324.466 202.148 314.341 196.592C304.34 190.912 296.623 183.01 291.19 172.885C285.881 162.761 283.227 151.216 283.227 138.252C283.227 125.288 285.881 113.743 291.19 103.618C296.623 93.4939 304.34 85.6535 314.341 80.0973C324.342 74.4177 336.072 71.5779 349.53 71.5779C366.693 71.5779 380.645 75.7141 391.387 83.9867C402.252 92.2592 408.673 103.495 410.648 117.694H367.31ZM547.507 72.8743V204H506.391V152.883H467.312V204H426.197V72.8743H467.312V120.102H506.391V72.8743H547.507ZM629.901 205.296C617.554 205.296 606.195 202.395 595.824 196.592C585.575 190.789 577.426 182.763 571.376 172.515C565.326 162.267 562.301 150.722 562.301 137.882C562.301 125.041 565.326 113.496 571.376 103.248C577.426 93 585.575 85.0362 595.824 79.3565C606.195 73.5534 617.554 70.6519 629.901 70.6519C642.248 70.6519 653.546 73.5534 663.794 79.3565C674.042 85.0362 682.129 93 688.056 103.248C694.106 113.496 697.131 125.041 697.131 137.882C697.131 150.722 694.106 162.267 688.056 172.515C682.129 182.763 673.98 190.789 663.609 196.592C653.361 202.395 642.125 205.296 629.901 205.296ZM629.901 166.959C638.05 166.959 644.347 164.366 648.792 159.18C653.237 153.871 655.46 146.771 655.46 137.882C655.46 128.868 653.237 121.769 648.792 116.583C644.347 111.274 638.05 108.619 629.901 108.619C621.629 108.619 615.27 111.274 610.825 116.583C606.38 121.769 604.158 128.868 604.158 137.882C604.158 146.771 606.38 153.871 610.825 159.18C615.27 164.366 621.629 166.959 629.901 166.959ZM763.265 205.296C747.585 205.296 734.62 201.654 724.372 194.369C714.248 186.961 708.753 176.157 707.889 161.958H751.597C752.215 169.49 755.549 173.256 761.599 173.256C763.821 173.256 765.673 172.762 767.155 171.774C768.76 170.663 769.562 168.996 769.562 166.774C769.562 163.687 767.896 161.217 764.562 159.365C761.228 157.39 756.042 155.167 749.005 152.698C740.609 149.735 733.632 146.833 728.076 143.993C722.644 141.154 717.952 137.017 714.001 131.585C710.05 126.152 708.136 119.176 708.259 110.656C708.259 102.137 710.42 94.9138 714.741 88.9872C719.186 82.9372 725.175 78.3688 732.706 75.282C740.362 72.1952 748.943 70.6519 758.45 70.6519C774.501 70.6519 787.219 74.356 796.602 81.7642C806.11 89.1724 811.11 99.6057 811.604 113.064H767.34C767.216 109.36 766.29 106.705 764.562 105.1C762.833 103.495 760.734 102.692 758.265 102.692C756.536 102.692 755.116 103.31 754.005 104.545C752.894 105.656 752.338 107.261 752.338 109.36C752.338 112.323 753.943 114.793 757.154 116.768C760.487 118.62 765.735 120.904 772.896 123.621C781.169 126.707 787.96 129.671 793.269 132.511C798.701 135.35 803.393 139.301 807.344 144.364C811.295 149.426 813.271 155.785 813.271 163.44C813.271 171.466 811.295 178.689 807.344 185.109C803.393 191.406 797.652 196.345 790.12 199.925C782.589 203.506 773.637 205.296 763.265 205.296ZM930.691 72.8743V105.471H895.873V204H854.757V105.471H820.309V72.8743H930.691Z" fill="white"/>
<path d="M298.46 254.321C300.97 247.119 305.499 241.225 312.047 236.642C318.704 232.058 326.725 229.767 336.11 229.767C344.404 229.767 351.77 231.622 358.209 235.332C364.757 239.043 369.832 244.336 373.433 251.211C377.143 258.086 378.999 266.107 378.999 275.274C378.999 284.441 377.143 292.517 373.433 299.502C369.832 306.377 364.757 311.724 358.209 315.544C351.77 319.254 344.404 321.109 336.11 321.109C326.834 321.109 318.867 318.818 312.21 314.234C305.663 309.542 301.079 303.648 298.46 296.555V361.706H291.094V230.913H298.46V254.321ZM371.469 275.274C371.469 267.199 369.941 260.214 366.885 254.321C363.829 248.428 359.519 243.954 353.953 240.898C348.496 237.733 342.167 236.151 334.964 236.151C328.089 236.151 321.869 237.788 316.303 241.062C310.737 244.227 306.372 248.81 303.207 254.812C300.042 260.705 298.46 267.526 298.46 275.274C298.46 283.132 300.042 290.062 303.207 296.064C306.372 301.957 310.737 306.54 316.303 309.814C321.869 312.979 328.089 314.562 334.964 314.562C342.167 314.562 348.496 312.979 353.953 309.814C359.519 306.65 363.829 302.121 366.885 296.228C369.941 290.334 371.469 283.35 371.469 275.274ZM396.654 275.274C396.654 266.107 398.454 258.086 402.056 251.211C405.766 244.336 410.841 239.043 417.279 235.332C423.827 231.622 431.248 229.767 439.542 229.767C448.927 229.767 456.894 232.058 463.442 236.642C469.99 241.225 474.573 247.064 477.192 254.158V230.913H484.559V319.8H477.192V296.391C474.573 303.594 469.935 309.542 463.278 314.234C456.73 318.818 448.818 321.109 439.542 321.109C431.248 321.109 423.827 319.254 417.279 315.544C410.841 311.724 405.766 306.377 402.056 299.502C398.454 292.517 396.654 284.441 396.654 275.274ZM477.192 275.274C477.192 267.526 475.555 260.705 472.281 254.812C469.117 248.81 464.751 244.227 459.186 241.062C453.62 237.788 447.4 236.151 440.524 236.151C433.322 236.151 426.992 237.733 421.535 240.898C416.079 243.954 411.823 248.428 408.767 254.321C405.711 260.214 404.184 267.199 404.184 275.274C404.184 283.35 405.711 290.334 408.767 296.228C411.823 302.121 416.079 306.65 421.535 309.814C427.101 312.979 433.431 314.562 440.524 314.562C447.4 314.562 453.62 312.979 459.186 309.814C464.861 306.54 469.28 301.957 472.445 296.064C475.61 290.062 477.192 283.132 477.192 275.274ZM580.788 230.913L529.06 361.543H521.53L538.063 319.8L500.74 230.913H508.761L542.156 311.615L573.258 230.913H580.788Z" fill="white"/>
</svg>
